<?xml version="1.0" standalone="no"?><!DOCTYPE svg PUBLIC "-//W3C//DTD SVG 1.1//EN" "http://www.w3.org/Graphics/SVG/1.1/DTD/svg11.dtd"><svg t="1482212607644" class="icon" style="" viewBox="0 0 1024 1024" version="1.1" xmlns="http://www.w3.org/2000/svg" p-id="2463" xmlns:xlink="http://www.w3.org/1999/xlink" width="200" height="200"><defs><style type="text/css"></style></defs><path d="M393.503 62l-262.94 0c-36.356 0-66.226 27.757-66.226 66.226l0 262.94c0 36.356 27.758 66.226 66.226 66.226l262.94 0c36.356 0 66.226-27.758 66.226-66.226l0-262.94c0.151-36.356-29.87-66.226-66.226-66.226zM611.639 457.542l262.94 0c36.356 0 66.226-27.757 66.226-66.226l0-263.091c0.151-36.356-27.757-66.226-66.226-66.226l-262.94 0c-36.356 0-66.226 27.757-66.226 66.226l0 262.94c2.112 36.507 29.87 66.375 66.226 66.375zM393.503 566.609l-262.94 0c-36.356 0-66.226 27.758-66.226 66.226l0 262.94c0 36.356 27.758 66.226 66.226 66.226l262.94 0c36.356 0 66.226-27.757 66.226-66.226l0-262.94c0.151-38.467-29.87-66.226-66.226-66.226zM958.002 923.683l-70.599-70.601c19.31-27.757 29.87-64.114 29.87-100.47 0-102.581-83.423-186.004-186.004-186.004s-186.004 83.423-186.004 186.004 83.423 186.004 186.155 186.004c49.178 0 91.87-19.31 124.002-49.178l66.226 66.226c4.224 4.224 10.71 4.224 17.047 0l17.047-17.047c6.487-4.224 6.487-10.71 2.263-14.934zM838.224 846.748l-2.112 4.224c-25.645 25.645-62.002 42.692-102.581 42.692-79.049 0-143.312-64.114-143.312-143.312s64.114-143.312 143.312-143.312 143.312 64.114 143.312 143.312c-2.263 38.619-15.085 72.863-38.619 96.397z" p-id="2464" fill="#ffffff"></path></svg>