<?xml version="1.0" standalone="no"?><!DOCTYPE svg PUBLIC "-//W3C//DTD SVG 1.1//EN" "http://www.w3.org/Graphics/SVG/1.1/DTD/svg11.dtd"><svg t="1482116673599" class="icon" style="" viewBox="0 0 1024 1024" version="1.1" xmlns="http://www.w3.org/2000/svg" p-id="10318" xmlns:xlink="http://www.w3.org/1999/xlink" width="200" height="200"><defs><style type="text/css"></style></defs><path d="M354.016 902.016c-39.008 0-227.52 0-227.52 0-35.296 0-64-29.632-64-66.016l0-709.408c0-36.416 28.704-66.016 64-66.016l666.624 0c35.328 0 64 29.632 64 66.016 0 0 0 210.912 0 241.408s-31.104 27.68-31.104 27.68-32.896 1.824-32.896-29.696c0-57.152 0-179.296 0-207.008 0-36.512-41.632-32.576-41.632-32.576l-589.984-1.76c0 0-34.944-3.68-34.944 35.328 0 33.984 0 521.984 0 647.008 0 18.464 9.216 29.088 23.968 29.216 53.568 0.48 180.384 1.568 205.472 1.568 32 0 32.448 31.232 32.448 31.232S393.024 902.016 354.016 902.016z" p-id="10319" fill="#ffffff"></path><path d="M218.656 248.064c0-17.6 14.4-32 32-32l386.304 0c17.6 0 32 14.4 32 32l0 0c0 17.6-14.4 32-32 32l-386.304 0C233.088 280.064 218.656 265.664 218.656 248.064L218.656 248.064z" p-id="10320" fill="#ffffff"></path><path d="M218.656 403.552c0-17.6 14.4-32 32-32l299.04 0c17.6 0 32 14.4 32 32l0 0c0 17.6-14.4 32-32 32l-299.04 0C233.088 435.552 218.656 421.152 218.656 403.552L218.656 403.552z" p-id="10321" fill="#ffffff"></path><path d="M218.656 559.04c0-17.6 14.4-32 32-32l179.68 0c17.6 0 32 14.4 32 32l0 0c0 17.6-14.4 32-32 32l-179.68 0C233.088 591.04 218.656 576.64 218.656 559.04L218.656 559.04z" p-id="10322" fill="#ffffff"></path><path d="M218.656 714.528c0-17.6 14.4-32 32-32l179.68 0c17.6 0 32 14.4 32 32l0 0c0 17.6-14.4 32-32 32l-179.68 0C233.088 746.528 218.656 732.128 218.656 714.528L218.656 714.528z" p-id="10323" fill="#ffffff"></path><path d="M959.616 868.416l-96.832-180.608c10.016-22.496 15.776-47.296 15.904-73.472 0.384-100.928-81.152-183.104-182.176-183.456-100.928-0.448-183.2 81.12-183.488 182.08-0.128 26.816 5.856 52 16.064 75.008l-98.624 178.304c-3.168 5.664-2.688 12.8 1.248 18.016 3.936 5.248 10.56 7.648 16.96 6.208l83.552-18.88 28.288 79.68c2.208 6.176 7.84 10.432 14.304 11.072 0.448-0.032 0.8 0 1.312 0 6.048 0.064 11.744-3.264 14.688-8.672l86.176-159.136c6.048 0.672 11.936 1.92 18.112 1.984 5.696 0 11.072-1.12 16.672-1.728l86.816 159.68c2.944 5.504 8.512 8.768 14.56 8.736 0.416 0.096 0.8 0.032 1.312-0.032 6.496-0.512 12.128-4.736 14.432-10.816l28.8-79.488 83.36 19.392c6.368 1.6 13.056-0.864 16.928-6.016C962.112 881.184 962.624 874.112 959.616 868.416zM575.424 846.336l-10.368-29.312c-1.44-4-5.568-6.336-9.792-5.344l-31.04 6.944 43.936-78.88c16.128 16.288 29.312 23.424 47.328 33.344L575.424 846.336zM695.136 729.824c-64.32-0.352-116.544-52.864-116.224-117.248 0.192-64.32 52.736-116.576 117.152-116.256 64.352 0.224 116.48 52.736 116.224 117.088C812.064 677.824 759.552 729.984 695.136 729.824zM838.304 824.448c-4.896-1.216-9.824 1.632-11.488 6.208l-12.384 34.624-47.072-86.496c21.312-11.648 36.832-20.16 55.968-39.296l51.584 93.216L838.304 824.448z" p-id="10324" fill="#ffffff"></path></svg>