<?xml version="1.0" standalone="no"?><!DOCTYPE svg PUBLIC "-//W3C//DTD SVG 1.1//EN" "http://www.w3.org/Graphics/SVG/1.1/DTD/svg11.dtd"><svg t="1482301196295" class="icon" style="" viewBox="0 0 1024 1024" version="1.1" xmlns="http://www.w3.org/2000/svg" p-id="9237" xmlns:xlink="http://www.w3.org/1999/xlink" width="200" height="200"><defs><style type="text/css"></style></defs><path d="M718.814276 468.204541c18.766412-33.341363 28.681226-71.013357 28.681226-109.078301 0-63.098083-26.933419-123.500778-73.887824-165.706019-47.600111-42.800805-109.22975-62.59257-173.304068-55.753815-99.390661 10.586103-181.826162 90.071412-196.033745 188.993398-7.065929 49.296753 1.962701 98.073666 26.136264 141.166113l166.301584 335.895143c5.305843 10.725272 16.044418 17.385972 28.009937 17.385972 11.966543 0 22.704095-6.6607 28.009937-17.385972L718.434629 469.015 718.814276 468.204541zM693.602058 460.7078 529.479093 792.222169c-1.26583 2.570545-3.533476 2.950192-4.761444 2.950192-1.227967 0-3.494591-0.379647-4.761444-2.950192L357.75808 464.620923l0.39295-0.494257-4.368494-7.648191c-21.919219-38.394449-30.162974-82.016968-23.831778-126.134769 12.536524-87.360673 85.334527-157.537989 173.101453-166.896124 56.729026-6.040576 111.154589 11.446703 153.22066 49.257867 41.49609 37.292348 65.290005 90.665952 65.290005 146.420791 0 34.063817-9.003048 67.784826-26.022677 97.53029l-1.962701 3.63376L693.602058 460.7078z" p-id="9238" fill="#ffffff"></path><path d="M524.717649 219.594347c-80.181157 0-145.407718 65.22656-145.407718 145.407718 0 80.180134 65.22656 145.407718 145.407718 145.407718 80.181157 0 145.407718-65.22656 145.407718-145.407718C670.125367 284.820907 604.898807 219.594347 524.717649 219.594347zM524.717649 484.476133c-65.872267 0-119.474069-53.601802-119.474069-119.474069 0-65.872267 53.601802-119.474069 119.474069-119.474069s119.474069 53.601802 119.474069 119.474069C644.191718 430.874331 590.589916 484.476133 524.717649 484.476133z" p-id="9239" fill="#ffffff"></path><path d="M338.373591 654.869918c-2.289136-3.359514-6.090718-5.461385-10.153244-5.461385l-84.800361 0c-5.03876 0-9.567913 3.222391-11.42112 7.907087l-62.433958 157.804049c-1.500167 3.783163-1.025353 7.825222 1.25969 11.190877 2.287089 3.365654 6.092765 5.247514 10.161431 5.247514l254.649747 0c4.552689 0 8.731872-2.406816 10.861372-6.431479 2.127454-4.024663 1.855254-8.956999-0.708128-12.718673L338.373591 654.869918zM199.062731 806.996664l52.704362-133.029806 69.958328 0 90.675162 133.029806L199.062731 806.996664z" p-id="9240" fill="#ffffff"></path><path d="M878.558513 814.867936l-64.071248-157.706835c-1.88186-4.630461-6.382361-7.753591-11.381212-7.753591l-101.760638 0c-4.516874 0-8.670473 2.623757-10.813277 6.599302l-85.005023 157.804049c-2.053776 3.807722-1.951445 8.17724 0.264013 11.890818 2.217505 3.713578 6.224772 5.855358 10.549264 5.855358l250.836909 0c4.089132 0 7.90811-1.922792 10.191106-5.314029C879.652428 822.849724 880.097566 818.655192 878.558513 814.867936zM636.921127 806.996664l71.758324-133.029806 86.158289 0 54.085826 133.029806L636.921127 806.996664z" p-id="9241" fill="#ffffff"></path></svg>