<?xml version="1.0" standalone="no"?><!DOCTYPE svg PUBLIC "-//W3C//DTD SVG 1.1//EN" "http://www.w3.org/Graphics/SVG/1.1/DTD/svg11.dtd"><svg t="1482297962367" class="icon" style="" viewBox="0 0 1024 1024" version="1.1" xmlns="http://www.w3.org/2000/svg" p-id="7021" xmlns:xlink="http://www.w3.org/1999/xlink" width="200" height="200"><defs><style type="text/css"></style></defs><path d="M923.709853 189.487655l-824.784796 0c-16.954137 0-30.699186-13.745049-30.699186-30.699186s13.745049-30.699186 30.699186-30.699186l824.784796 0c16.954137 0 30.699186 13.745049 30.699186 30.699186S940.66399 189.487655 923.709853 189.487655z" p-id="7022" fill="#ffffff"></path><path d="M923.709853 357.198332l-824.784796 0c-16.954137 0-30.699186-13.745049-30.699186-30.699186s13.745049-30.699186 30.699186-30.699186l824.784796 0c16.954137 0 30.699186 13.745049 30.699186 30.699186S940.66399 357.198332 923.709853 357.198332z" p-id="7023" fill="#ffffff"></path><path d="M923.709853 524.910031l-824.784796 0c-16.954137 0-30.699186-13.745049-30.699186-30.699186s13.745049-30.699186 30.699186-30.699186l824.784796 0c16.954137 0 30.699186 13.745049 30.699186 30.699186S940.66399 524.910031 923.709853 524.910031z" p-id="7024" fill="#ffffff"></path><path d="M923.709853 692.620707l-824.784796 0c-16.954137 0-30.699186-13.745049-30.699186-30.699186s13.745049-30.699186 30.699186-30.699186l824.784796 0c16.954137 0 30.699186 13.745049 30.699186 30.699186S940.66399 692.620707 923.709853 692.620707z" p-id="7025" fill="#ffffff"></path><path d="M923.709853 860.332407l-824.784796 0c-16.954137 0-30.699186-13.745049-30.699186-30.699186s13.745049-30.699186 30.699186-30.699186l824.784796 0c16.954137 0 30.699186 13.745049 30.699186 30.699186S940.66399 860.332407 923.709853 860.332407z" p-id="7026" fill="#ffffff"></path></svg>