<?xml version="1.0" standalone="no"?><!DOCTYPE svg PUBLIC "-//W3C//DTD SVG 1.1//EN" "http://www.w3.org/Graphics/SVG/1.1/DTD/svg11.dtd"><svg t="1482212561652" class="icon" style="" viewBox="0 0 1024 1024" version="1.1" xmlns="http://www.w3.org/2000/svg" p-id="2243" xmlns:xlink="http://www.w3.org/1999/xlink" width="200" height="200"><defs><style type="text/css"></style></defs><path d="M144.32813 258.236436c1.040702-7.314593 1.657756-14.694677 3.120061-21.942755 7.835456-38.913265 35.629475-64.400752 75.679633-67.717288 21.587668-1.820462 43.366693-1.201361 65.084321-1.622964 5.006014-0.132006 10.013051-0.163729 15.018042 0.030699 11.054777 0.422625 16.124236 4.909823 17.944697 15.606443 1.170662 6.791683 0.455371 13.490246-1.983167 19.927865-3.151783 8.322549-8.483208 11.994172-17.522072 12.026918-19.568684 0.064468-39.139415-0.064468-58.709123 0.031722-14.922874 0.098237-28.250414 4.194532-38.393425 15.572674-7.641027 8.581446-10.79281 18.822694-11.411911 29.972639-0.162706 2.37407-0.128937 4.746094-0.128937 7.151887-0.033769 179.677219 0 359.353414 0 539.061332 0 25.194822 11.278881 41.221844 35.368532 50.259684 8.679683 3.25002 17.621333 4.9088 26.919093 4.9088 174.313048-0.033769 348.626096 0 522.937097-0.033769 18.887163 0 34.231639-6.631024 43.75555-23.470551 4.647857-8.192589 6.016017-17.198707 6.016017-26.461675l0-93.496417c0-150.905942-0.033769-301.809837 0-452.716802 0-12.646018-2.50403-24.511253-11.021008-34.490535-10.112312-11.867282-23.667026-16.158005-38.882566-16.256242-15.538905-0.096191-31.04404 0.098237-46.552246-0.064468-12.547781-0.128937-21.584598-6.373151-27.436886-16.807804-6.144954-10.921747-1.2689-22.398126 11.704576-27.501354 4.810562-1.852184 10.172687-3.055592 15.310707-3.120061 19.016099-0.194428 38.065967-0.261966 57.085136 0.455371 44.503587 1.690502 77.402881 29.713742 85.856413 72.689532 1.170662 5.916756 1.755993 12.027941 2.599198 18.009166L876.685863 814.398238c-0.228197 1.300622-0.455371 2.568499-0.649799 3.869121-1.949398 10.79281-2.861164 21.877263-6.079462 32.282241-7.314593 23.600511-22.853497 40.441061-46.324048 49.934273-16.516162 6.695492-33.810037 8.643867-51.462069 8.643867-174.410262 0-348.852246 0.033769-523.294231-0.127913-9.492188 0-19.213597-0.649799-28.511357-2.600221-40.016389-8.258081-64.366983-32.380478-72.916706-71.6519-1.527796-6.955412-2.113127-14.108323-3.120061-21.129226C144.32813 628.479875 144.32813 443.37504 144.32813 258.236436L144.32813 258.236436zM511.158842 539.5341c-59.947324 0-119.893624-0.029676-179.840948 0.033769-10.337439 0-18.853393-3.055592-24.382317-12.06171-10.009981-16.286941 1.561565-35.82288 21.717627-36.700877 0.779759-0.064468 1.626034-0.030699 2.405793-0.030699 119.632681 0 239.264339 0 358.89702-0.033769 10.727319 0 19.570731 3.382027 25.194822 12.840446 8.972349 14.987343-0.877997 33.839713-18.530029 35.565007-2.405793 0.228197-4.844332 0.387833-7.250124 0.387833C629.944226 539.567869 570.551534 539.5341 511.158842 539.5341L511.158842 539.5341zM511.35327 358.495884c60.20622 0 120.41244 0 180.620707 0.030699 12.613272 0 21.974477 6.243191 25.549909 16.937764 4.813632 14.303774-5.621021 29.974685-20.902052 31.404244-1.204431 0.128937-2.439562 0.193405-3.640923 0.193405-121.226992 0-242.482637 0-363.710652-0.030699-12.905938 0-23.113417-7.998161-25.453718-19.6045-2.827395-13.881149 7.67275-27.600615 22.040992-28.771277 2.016937-0.160659 4.031826-0.160659 6.046716-0.160659C391.720589 358.495884 451.535907 358.495884 511.35327 358.495884L511.35327 358.495884zM510.767939 634.525568c60.042491 0 120.152521 0.100284 180.228781-0.098237 14.467503-0.064468 23.893176 8.647961 26.78811 18.790972 3.966335 13.94664-6.600325 28.348652-21.782096 29.713742-1.105171 0.12996-2.143826 0.12996-3.25002 0.12996-121.094986 0-242.190995 0.031722-363.28598 0-13.623275 0-23.895223-8.452509-25.90909-21.065781-2.082428-12.875239 8.451486-26.136264 21.714558-27.307949 2.275833-0.193405 4.552689-0.163729 6.859221-0.163729C391.656121 634.525568 451.212542 634.525568 510.767939 634.525568L510.767939 634.525568zM511.094374 143.643538c27.240411-0.033769 54.547337 0.487094 81.790818-0.163729 20.413935-0.51984 36.051077 15.409968 39.042201 33.939997 2.50403 15.474436-1.626034 29.127388-13.295817 40.212864-6.502088 6.178723-14.304797 9.29776-23.341614 9.29776-55.786561 0-111.50456 0.033769-167.259398-0.030699-16.415878-0.033769-30.458709-10.145058-35.790134-26.171056-6.114255-18.3356-2.666736-34.783201 11.833513-48.308239 6.532787-6.079462 14.497179-8.876158 23.599488-8.81169C455.469496 143.708006 483.266585 143.643538 511.094374 143.643538L511.094374 143.643538zM511.094374 143.643538" p-id="2244" fill="#ffffff"></path></svg>