<?xml version="1.0" standalone="no"?><!DOCTYPE svg PUBLIC "-//W3C//DTD SVG 1.1//EN" "http://www.w3.org/Graphics/SVG/1.1/DTD/svg11.dtd"><svg t="1482296784346" class="icon" style="" viewBox="0 0 1024 1024" version="1.1" xmlns="http://www.w3.org/2000/svg" p-id="4664" xmlns:xlink="http://www.w3.org/1999/xlink" width="200" height="200"><defs><style type="text/css"></style></defs><path d="M180.957887 902.760728l-46.147016 0c-12.347213 0-10.136871 2.236947-10.136871-10.135848L124.673999 240.326531c0-12.369725-2.211365-10.136871 10.136871-10.136871l0-57.115835c-37.084617 0-67.254753 30.16502-67.254753 67.231217l0 652.29835c0 37.09178 30.169113 67.229171 67.254753 67.229171l753.35086-0.155543c37.089733 0 67.254753-30.169113 67.254753-67.229171L955.416484 130.399909c-0.021489-37.08564-30.191626-67.229171-67.254753-67.229171l0-0.005117L248.116449 63.165622c-37.084617 0-67.249637 30.16502-67.249637 67.232241l0 762.070452M898.299625 892.458081c0 12.372795 2.210341 10.136871-10.136871 10.136871L248.116449 902.594953c-12.362562 0-10.136871 2.235924-10.136871-10.136871L237.979578 130.394792c0-12.371772-2.206248-10.137895 10.136871-10.137895l640.045281 0c12.352329 0 10.136871-2.233877 10.136871 10.137895L898.298602 892.458081zM790.26305 607.870488 346.02127 607.870488c-8.506744 0-15.427364 9.617032-15.427364 21.404496l0 12.304234c0 11.827373 6.92062 21.403472 15.427364 21.403472l444.264293 0c8.506744 0 15.428388-9.605775 15.428388-21.403472L805.71395 629.274984C805.691437 617.47524 798.765701 607.870488 790.26305 607.870488L790.26305 607.870488zM790.26305 722.674187 346.02127 722.674187c-8.506744 0-15.427364 9.608845-15.427364 21.408589l0 12.296047c0 11.82942 6.92062 21.409612 15.427364 21.409612l444.264293 0c8.506744 0 15.428388-9.607822 15.428388-21.409612l0-12.296047C805.691437 732.283032 798.765701 722.674187 790.26305 722.674187L790.26305 722.674187zM376.600729 548.494169l181.966355 0c25.361621 0 45.984311-20.626783 45.984311-45.986357L604.551394 318.568523c0-25.361621-20.62576-45.986357-45.984311-45.986357L376.600729 272.582165c-25.361621 0-45.983287 20.626783-45.983287 45.986357l0 183.939289C330.618465 527.867386 351.239108 548.494169 376.600729 548.494169zM385.810484 327.775208l163.546843 0-0.067538 165.520801L385.810484 493.296009M655.161049 328.440357l130.59536 0c10.969842 0 19.909445-12.412704 19.909445-27.556613 0-15.144932-8.967232-27.556613-19.909445-27.556613L655.161049 273.327132c-10.970866 0-19.915585 12.411681-19.915585 27.556613C635.245464 316.027653 644.210649 328.440357 655.161049 328.440357zM655.161049 443.35969l130.59536 0c10.969842 0 19.909445-12.412704 19.909445-27.556613 0-15.149025-8.967232-27.556613-19.909445-27.556613L655.161049 388.246465c-10.970866 0-19.915585 12.407588-19.915585 27.556613C635.245464 430.946986 644.210649 443.35969 655.161049 443.35969zM655.161049 554.183751l130.59536 0c10.969842 0 19.909445-12.418844 19.909445-27.554566 0-15.151072-8.967232-27.558659-19.909445-27.558659L655.161049 499.070526c-10.970866 0-19.915585 12.407588-19.915585 27.558659C635.245464 541.764907 644.210649 554.183751 655.161049 554.183751z" p-id="4665" fill="#ffffff"></path></svg>