<?xml version="1.0" standalone="no"?><!DOCTYPE svg PUBLIC "-//W3C//DTD SVG 1.1//EN" "http://www.w3.org/Graphics/SVG/1.1/DTD/svg11.dtd"><svg t="1482309298247" class="icon" style="" viewBox="0 0 1024 1024" version="1.1" xmlns="http://www.w3.org/2000/svg" p-id="2017" xmlns:xlink="http://www.w3.org/1999/xlink" width="200" height="200"><defs><style type="text/css"></style></defs><path d="M959.420169 511.569188c0-247.421112-200.517873-447.973778-447.930799-447.973778S63.559595 264.149099 63.559595 511.569188c0 247.418043 200.517873 447.929776 447.929776 447.929776 101.541651 0 194.535625-34.55091 269.695419-91.485621 3.089361-3.521197 5.104251-7.972579 5.104251-12.986779 0-10.952446-8.872065-19.824511-19.84907-19.824511-5.697769 0-10.759041 2.209318-14.408151 6.042623l-0.202615 0c-67.255777 49.467645-150.018735 79.107709-239.926418 79.107709-223.995587 0-405.603785-181.6522-405.603785-405.650857 0-224.038566 181.609221-405.693836 405.603785-405.693836 224.046752 0 405.650857 181.65527 405.650857 405.693836 0 68.436672-16.032138 132.822075-45.982264 189.406814l0 0.330528c-0.546446 1.880837-1.154289 3.702322-1.154289 5.717212 0 10.974959 8.912997 19.871583 19.819394 19.871583 8.587586 0 15.709797-5.478781 18.509563-13.035898l0 0.153496C940.623058 655.475715 959.420169 585.723072 959.420169 511.569188z" p-id="2018" fill="#ffffff"></path><path d="M767.604492 532.304442c3.128247-4.330632 4.790096-9.405207 4.790096-14.610766 0-5.161556-1.596358-10.061147-4.790096-14.566764-3.390213-4.724605-8.333806-7.305383-13.910824-7.305383l-133.204791 0.480954c3.171226-31.803333 4.89959-71.349001 5.140067-117.894084l118.921483 0.480954c5.555529 0 10.499122-2.580778 14.020318-7.393387 3.105734-4.461615 4.680603-9.361205 4.680603-14.523785s-1.64036-10.193153-4.811586-14.654768c-3.411703-4.6366-8.333806-7.218402-13.889335-7.218402l-51.094702 0.480954c29.484521-49.344848 32.174793-60.149938 32.174793-66.230424 0-4.111644-1.421372-8.18031-4.309142-12.248975-2.843768-3.89368-6.626931-6.605442-11.461029-8.136308l-5.599532-0.830925c-3.499707 0-6.999414 0.918929-10.43363 2.755764-5.074575 2.755764-9.099239 7.699356-12.116969 14.829753-6.736425 14.479783-13.429871 27.865651-20.123316 40.245609-5.621021 10.368138-11.395538 20.2543-17.257036 29.615505l-74.585719 0c-3.674693-7.218402-7.349385-14.216793-11.024078-20.998243-4.703115-8.705266-9.449209-17.060561-14.195304-25.15389-13.823843-23.316032-17.607006-27.51568-19.488867-29.090549-5.840008-5.774517-11.899004-6.999414-15.945157-6.999414-8.618285 0-15.660678 3.849678-19.838837 10.849092-4.615111 7.743358-2.996241 17.235546 4.834098 28.346605 10.674107 14.916734 19.925818 29.353538 27.625174 43.045375l-46.785559 0c-7.743358-1.574868-14.785751 0.918929-19.006889 6.824429-3.128247 4.330632-4.790096 9.405207-4.790096 14.566764 0 5.205559 1.596358 10.105149 4.790096 14.610766 4.199649 5.861498 10.958586 8.399297 18.96391 6.824429l105.907075 0c0.130983 23.840988-0.261966 45.889143-1.159406 65.661466-0.896416 19.073404-2.143826 36.614919-3.740184 52.231595L463.093127 496.29839c-7.218402-1.399883-13.758352 0.568958-18.066471 5.599532l0-176.162162 15.683191 0c13.014408 0 21.413706-8.399297 21.413706-21.435195 0-13.341866-8.399297-21.960151-21.413706-21.960151L262.893502 282.340413c-13.014408 0-21.413706 8.618285-21.413706 21.960151 0 13.035898 8.399297 21.435195 21.413706 21.435195l13.539364 0 0 348.343663-19.816325 5.074575c-18.023492 4.593622-19.96982 17.191544-19.96982 22.398126 0 5.118578 1.836835 10.061147 5.293563 14.173814 4.003174 4.811586 10.149151 7.218402 18.263969 7.218402 4.89959 0 15.835663-1.836835 59.690474-15.529695 16.645099-5.030573 32.940227-10.367115 48.863894-16.010649 10.783601-3.805676 21.588691-7.699356 32.371268-11.768021l0 74.585719c0 13.035898 8.618285 21.435195 21.960151 21.435195 9.601682 0 16.776082-4.374634 20.013823-11.680017 1.684362 1.968841 3.740184 3.63069 6.124488 4.943592 2.711761 1.486864 4.878101 2.449795 6.386454 2.930749l3.478218 0.568958c10.761088 0 27.821649-8.136308 79.354326-67.236334 30.293957-34.296107 52.122101-73.141834 65.180512-115.794259 20.691251 52.800553 45.364187 94.621031 73.66679 124.71749 47.289026 49.825802 63.365166 56.694233 73.689303 56.694233 6.343475 0 11.964496-3.193739 15.464203-8.836249 2.559289-4.155646 3.805676-8.093329 3.805676-12.029988 0-9.143241-5.840008-18.066471-17.651009-27.034726-54.484915-43.701315-95.53996-105.514125-122.180713-183.774537l123.274628 0.480954C759.27171 539.610848 764.214279 537.029046 767.604492 532.304442zM320.330656 399.537625l0-73.798796 80.797188 0 0 73.798796L320.330656 399.537625zM320.330656 524.256138l0-82.416058 80.797188 0 0 82.416058L320.330656 524.256138zM401.127843 566.55757l0 67.324338c-27.253714 11.111059-54.331419 20.60427-80.797188 28.215622l0-95.53996L401.127843 566.55757zM445.026656 735.852324l0-73.798796c11.876492-5.380544 19.729344-9.361205 24.453948-12.379958 8.399297-5.424546 12.641925-11.855002 12.641925-19.073404 0-13.691837-8.989745-19.816325-17.913998-19.816325-3.236718 0-8.114818 0.699941-19.181875 4.811586l0-82.066087c4.28663 5.030573 10.80509 6.999414 18.066471 5.599532l106.695021 0c-7.195889 35.215036-18.591427 66.974367-33.902134 94.577029-17.869996 31.584346-45.385677 62.905702-81.979106 93.26515C450.189236 730.20879 447.257463 733.139539 445.026656 735.852324z" p-id="2019" fill="#ffffff"></path></svg>