<?xml version="1.0" standalone="no"?><!DOCTYPE svg PUBLIC "-//W3C//DTD SVG 1.1//EN" "http://www.w3.org/Graphics/SVG/1.1/DTD/svg11.dtd"><svg t="1481962316715" class="icon" style="" viewBox="0 0 1024 1024" version="1.1" xmlns="http://www.w3.org/2000/svg" p-id="6228" xmlns:xlink="http://www.w3.org/1999/xlink" width="200" height="200"><defs><style type="text/css"></style></defs><path d="M586.335009 57.113789l197.536982 197.540052c18.20871 18.20871 18.20871 47.690162 0 65.898873-18.162662 18.162662-47.635927 18.162662-65.841567 0L520.479115 122.966613c-3.578502-3.544733-5.861498-7.780197-7.999185-12.016685-2.194992 4.236488-4.423753 8.471952-8.013511 12.016685L306.926368 320.55169c-18.20871 18.162662-47.687092 18.162662-65.850777 0-18.20871-18.20871-18.20871-47.690162 0-65.898873L438.612573 57.113789c7.871271-7.868201 17.977443-11.689227 28.228925-12.753465 2.514263-23.381523 21.601994-41.825594 45.63741-41.825594 24.02416 0 43.1211 18.445094 45.581128 41.825594C568.357566 45.424562 578.463738 49.244564 586.335009 57.113789L586.335009 57.113789zM512.479931 379.502313c35.500539 0 64.304562 28.815279 64.304562 64.312748 0 35.502585-28.804023 64.318888-64.304562 64.318888-35.497469 0-64.315818-28.815279-64.315818-64.318888C448.163089 408.317593 476.982462 379.502313 512.479931 379.502313L512.479931 379.502313zM512.479931 636.762515c35.500539 0 64.304562 28.815279 64.304562 64.310701 0 35.505655-28.804023 64.318888-64.304562 64.318888-35.497469 0-64.315818-28.813233-64.315818-64.318888C448.163089 665.578818 476.982462 636.762515 512.479931 636.762515L512.479931 636.762515zM512.479931 894.006344c35.500539 0 64.304562 28.818349 64.304562 64.315818 0 35.500539-28.804023 64.318888-64.304562 64.318888-35.497469 0-64.315818-28.818349-64.315818-64.318888C448.163089 922.824693 476.982462 894.006344 512.479931 894.006344L512.479931 894.006344zM512.479931 894.006344" p-id="6229" fill="#ffffff"></path></svg>