<?xml version="1.0" standalone="no"?><!DOCTYPE svg PUBLIC "-//W3C//DTD SVG 1.1//EN" "http://www.w3.org/Graphics/SVG/1.1/DTD/svg11.dtd"><svg t="1482301248865" class="icon" style="" viewBox="0 0 1024 1024" version="1.1" xmlns="http://www.w3.org/2000/svg" p-id="10147" xmlns:xlink="http://www.w3.org/1999/xlink" width="200" height="200"><defs><style type="text/css"></style></defs><path d="M370.262056 785.027745 268.55657 785.027745c-82.081526 0-148.617382-66.550452-148.617382-148.664818L119.939188 250.650056c0-82.135044 66.583292-148.66117 148.893485-148.66117l486.334623 0c82.243295 0 148.89835 66.555317 148.89835 148.66117l0 385.71287c0 82.20559-66.45558 148.664818-148.855779 148.664818L628.010503 785.027745c-6.784582 0-13.274817 2.765891-17.974643 7.663975l-133.380655 138.987849c-9.526147 9.929962-9.202608 25.699433 0.722489 35.220715 9.925097 9.526147 25.694568 9.202608 35.220715-0.722489l133.385521-138.992714-17.973426 7.663975 127.199363 0c109.914369 0 198.672226-88.766371 198.672226-198.48613L953.882092 250.650056c0-109.634617-88.971927-198.482481-198.714796-198.482481L268.832673 52.167575C159.018041 52.167575 70.117876 140.986248 70.117876 250.650056l0 385.71287c0 109.629752 88.838133 198.48613 198.438694 198.48613l101.705486 0c13.754044 0 24.910048-11.156004 24.910048-24.910048C395.172104 796.178883 384.0161 785.027745 370.262056 785.027745L370.262056 785.027745 370.262056 785.027745zM286.140777 375.995762l382.225706 0c13.75526 0 24.906399-11.151139 24.906399-24.905182 0-13.760125-11.151139-24.911264-24.906399-24.911264l-382.225706 0c-13.758909 0-24.910048 11.151139-24.910048 24.911264C261.230729 364.844623 272.381868 375.995762 286.140777 375.995762L286.140777 375.995762 286.140777 375.995762zM286.140777 531.68356l451.717198 0c13.760125 0 24.911264-11.151139 24.911264-24.905182 0-13.760125-11.151139-24.911264-24.911264-24.911264L286.140777 481.867113c-13.758909 0-24.910048 11.151139-24.910048 24.911264C261.230729 520.532421 272.381868 531.68356 286.140777 531.68356L286.140777 531.68356 286.140777 531.68356zM286.140777 531.68356" p-id="10148" fill="#ffffff"></path></svg>