<?xml version="1.0" standalone="no"?><!DOCTYPE svg PUBLIC "-//W3C//DTD SVG 1.1//EN" "http://www.w3.org/Graphics/SVG/1.1/DTD/svg11.dtd"><svg t="1481960839822" class="icon" style="" viewBox="0 0 1024 1024" version="1.1" xmlns="http://www.w3.org/2000/svg" p-id="1167" xmlns:xlink="http://www.w3.org/1999/xlink" width="200" height="200"><defs><style type="text/css"></style></defs><path d="M271.476995 114.554012c41.932018 0 81.325214 16.33606 110.965278 45.975101 29.640064 29.640064 45.975101 69.056795 45.975101 110.961184l0 156.939355L271.476995 428.429653c-41.925878 0-81.320097-16.311501-110.961184-45.974078-29.640064-29.641087-45.974078-69.062935-45.974078-110.965278 0-41.904389 16.306384-81.32112 45.974078-110.961184C190.157921 130.860397 229.574652 114.554012 271.476995 114.554012M271.578302 65.302285c-113.915469 0-206.287273 92.348268-206.287273 206.287273 0 113.919563 92.348268 206.291366 206.287273 206.291366l159.795403 0c25.666566 0 46.466288-20.827351 46.466288-46.495964L477.839992 271.589558C477.868645 157.650553 385.520377 65.302285 271.578302 65.302285L271.578302 65.302285 271.578302 65.302285 271.578302 65.302285zM272.051069 598.301552 272.051069 598.301552l153.636123 0 0 153.636123c0 41.036625-15.984043 79.612199-45.005007 108.631116-29.018917 29.018917-67.598584 45.005007-108.631116 45.005007-41.036625 0-79.612199-15.985066-108.631116-45.005007-29.018917-29.018917-45.005007-67.594491-45.005007-108.631116 0-41.032532 15.985066-79.612199 45.005007-108.631116C192.43887 614.285594 231.014444 598.301552 272.051069 598.301552M271.578302 546.119075c-113.915469 0-206.287273 92.348268-206.287273 206.291366 0 113.915469 92.348268 206.287273 206.287273 206.287273 113.919563 0 206.291366-92.348268 206.291366-206.287273L477.869668 592.615039c0-25.666566-20.829398-46.495964-46.495964-46.495964L271.578302 546.119075 271.578302 546.119075 271.578302 546.119075 271.578302 546.119075zM754.458077 113.758903c41.605583 0 80.729649 16.21224 110.142539 45.629223 29.416983 29.41289 45.629223 68.536956 45.629223 110.142539 0 41.60456-16.21224 80.728626-45.629223 110.146633-29.41289 29.416983-68.536956 45.624107-110.142539 45.624107L598.688361 425.301406 598.688361 269.529643c0-41.605583 16.207124-80.729649 45.624107-110.142539C673.730475 129.971144 712.853517 113.758903 754.458077 113.758903M752.422721 65.302285c-113.920586 0-206.287273 92.348268-206.287273 206.287273l0 159.795403c0 25.667589 20.799722 46.467311 46.491871 46.467311l159.795403 0c113.914446 0 206.28625-92.344175 206.28625-206.287273C958.708971 157.650553 866.337167 65.302285 752.422721 65.302285L752.422721 65.302285 752.422721 65.302285 752.422721 65.302285zM752.370533 597.629239 752.370533 597.629239c41.334407 0 80.184227 16.112979 109.426225 45.331441 29.219485 29.218462 45.331441 68.090794 45.331441 109.421108 0 41.335431-16.089443 80.207763-45.331441 109.426225-29.218462 29.219485-68.091818 45.331441-109.426225 45.331441-41.330314 0-80.180134-16.089443-109.422132-45.331441-29.218462-29.241998-45.330418-68.090794-45.330418-109.426225L597.617983 597.629239 752.370533 597.629239M752.422721 546.119075 592.627319 546.119075c-25.667589 0-46.491871 20.804838-46.491871 46.495964l0 159.795403c0 113.915469 92.344175 206.287273 206.287273 206.287273 113.914446 0 206.28625-92.348268 206.28625-206.287273C958.708971 638.490879 866.337167 546.119075 752.422721 546.119075L752.422721 546.119075 752.422721 546.119075 752.422721 546.119075zM752.422721 546.119075" p-id="1168" fill="#ffffff"></path></svg>