<?xml version="1.0" standalone="no"?><!DOCTYPE svg PUBLIC "-//W3C//DTD SVG 1.1//EN" "http://www.w3.org/Graphics/SVG/1.1/DTD/svg11.dtd"><svg t="1482116550918" class="icon" style="" viewBox="0 0 1024 1024" version="1.1" xmlns="http://www.w3.org/2000/svg" p-id="7559" xmlns:xlink="http://www.w3.org/1999/xlink" width="200" height="200"><defs><style type="text/css"></style></defs><path d="M819.968 956.736 204.096 956.736c-68.352 0-136.832-58.048-136.832-112L67.264 179.2c0-56.448 68.416-111.936 135.744-111.936l616.896 0c67.392 0 136.768 57.28 136.768 111.936l0 665.536C956.672 901.184 889.472 956.736 819.968 956.736L819.968 956.736zM888.192 206.912c0-40.768-51.136-83.328-102.464-83.328L238.4 123.584c-50.24 0-102.72 41.6-102.72 83.328l0 610.112c0 40.768 51.52 83.392 102.72 83.392l547.392 0c52.416 0 102.464-42.624 102.464-83.392L888.256 206.912 888.192 206.912zM238.016 648.32l547.264 0 0 69.376L238.016 717.696 238.016 648.32 238.016 648.32zM238.016 477.248l547.264 0 0 69.504L238.016 546.752 238.016 477.248 238.016 477.248zM238.016 306.432l547.264 0 0 69.376L238.016 375.808 238.016 306.432 238.016 306.432zM238.016 306.432" p-id="7560" fill="#ffffff"></path></svg>