<?xml version="1.0" standalone="no"?><!DOCTYPE svg PUBLIC "-//W3C//DTD SVG 1.1//EN" "http://www.w3.org/Graphics/SVG/1.1/DTD/svg11.dtd"><svg t="1482137841872" class="icon" style="" viewBox="0 0 1024 1024" version="1.1" xmlns="http://www.w3.org/2000/svg" p-id="11090" xmlns:xlink="http://www.w3.org/1999/xlink" width="200" height="200"><defs><style type="text/css"></style></defs><path d="M412.606 648.947l223.859-111.93c20.596-10.299 20.596-39.737 0-50.035L412.606 375.054c-18.636-9.29-40.519 4.197-40.519 25.017L372.087 623.93C372.087 644.748 393.97 658.236 412.606 648.947zM876.051 176.21 147.949 176.21c-46.06 0-83.668 37.944-83.668 84.339l0 502.845c0 46.619 37.329 84.395 83.668 84.395l728.102 0c46.061 0 83.668-37.943 83.668-84.395L959.719 260.55C959.719 213.987 922.391 176.21 876.051 176.21zM232.176 763.563c0 15.613-11.977 28.262-28.263 28.262l-55.405 0c-15.614 0-28.262-11.977-28.262-28.262l0-55.404c0-15.615 11.976-28.264 28.262-28.264l55.461 0c15.558 0 28.207 11.977 28.207 28.264L232.176 763.563zM232.176 539.701c0 15.615-11.977 28.264-28.263 28.264l-55.405 0c-15.614 0-28.262-11.977-28.262-28.264l0-55.404c0-15.615 11.976-28.262 28.262-28.262l55.461 0c15.558 0 28.207 11.977 28.207 28.262L232.176 539.701zM232.176 315.843c0 15.615-11.977 28.262-28.263 28.262l-55.405 0c-15.614 0-28.262-11.976-28.262-28.262l0-55.405c0-15.614 11.976-28.262 28.262-28.262l55.461 0c15.558 0 28.207 11.977 28.207 28.262L232.176 315.843zM735.859 791.824 288.14 791.824 288.14 232.175l447.719 0L735.859 791.824zM903.756 763.563c0 15.613-11.979 28.262-28.264 28.262l-55.461 0c-15.559 0-28.207-11.977-28.207-28.262l0-55.404c0-15.615 11.977-28.264 28.264-28.264l55.461 0c15.559 0 28.207 11.977 28.207 28.264L903.756 763.563zM903.756 539.701c0 15.615-11.979 28.264-28.264 28.264l-55.461 0c-15.559 0-28.207-11.977-28.207-28.264l0-55.404c0-15.615 11.977-28.262 28.264-28.262l55.461 0c15.559 0 28.207 11.977 28.207 28.262L903.756 539.701zM903.756 315.843c0 15.615-11.979 28.262-28.264 28.262l-55.461 0c-15.559 0-28.207-11.976-28.207-28.262l0-55.405c0-15.614 11.977-28.262 28.264-28.262l55.461 0c15.559 0 28.207 11.977 28.207 28.262L903.756 315.843z" p-id="11091" fill="#ffffff"></path></svg>