<?xml version="1.0" standalone="no"?><!DOCTYPE svg PUBLIC "-//W3C//DTD SVG 1.1//EN" "http://www.w3.org/Graphics/SVG/1.1/DTD/svg11.dtd"><svg t="1481960856688" class="icon" style="" viewBox="0 0 1024 1024" version="1.1" xmlns="http://www.w3.org/2000/svg" p-id="1387" xmlns:xlink="http://www.w3.org/1999/xlink" width="200" height="200"><defs><style type="text/css"></style></defs><path d="M1002.868015 544.331745c0-82.664989-38.006891-150.199131-85.870262-154.650846C871.900524 202.091386 706.738337 63.404584 509.86379 63.404584c-196.902352 0-362.084674 138.726112-407.154097 326.355895-47.511491 5.080689-85.124315 72.33582-85.124315 154.570307 0 85.54427 40.699206 154.891506 90.90397 154.891506 50.204764 0 90.90397 1.165903 90.90397-154.891506 0-88.88761-13.777019-126.771775-35.185139-142.915116 39.961888-157.079491 178.88839-273.385948 344.143581-273.385948C673.719131 128.029723 812.725213 244.494382 852.579715 401.737828l1.933903 0c-20.41576 16.315925-33.452584 54.274876-33.452584 142.593918 0 68.214891 8.113378 106.391491 21.563446 127.756464-11.685873 20.259476-47.22385 76.990801-103.274427 123.890577-43.799011 36.64827-102.787356 53.028434-140.471131 60.13603-17.011056-22.47239-53.366891-37.999221-95.472659-37.999221-58.401558 0-105.745258 29.867625-105.745258 66.711491 0 36.843865 47.3437 66.711491 105.745258 66.711491 36.396105 0 68.494861-11.601498 87.518442-29.260704 28.772674-13.697438 118.682367-57.985438 168.296509-99.330876 44.534412-37.111371 92.829243-98.514936 114.416659-127.209948 11.646562 3.328 24.632569 3.486202 38.326172 3.486202C962.169768 699.222292 1002.868015 629.875056 1002.868015 544.331745z" p-id="1388" fill="#ffffff"></path></svg>