<?xml version="1.0" standalone="no"?><!DOCTYPE svg PUBLIC "-//W3C//DTD SVG 1.1//EN" "http://www.w3.org/Graphics/SVG/1.1/DTD/svg11.dtd"><svg t="1482309431540" class="icon" style="" viewBox="0 0 1024 1024" version="1.1" xmlns="http://www.w3.org/2000/svg" p-id="4105" xmlns:xlink="http://www.w3.org/1999/xlink" width="200" height="200"><defs><style type="text/css"></style></defs><path d="M569.823963 509.653559c31.342846-15.671934 73.882708-38.060851 73.882708-94.02956 0-64.923662-53.732785-109.700471-134.331451-109.700471-55.968709 0-107.463524 33.579793-125.373429 80.594573-4.473895 11.195993-6.715959 31.347962-4.473895 47.018873 2.236947 11.1919 13.429871 17.908882 24.625864 15.671934 6.715959-2.242064 11.1919-4.480035 13.433964-8.960069 2.237971-4.473895 4.475941-11.1919 2.237971-15.670911-2.237971-4.475941 0-15.671934 2.237971-22.388916 8.953929-26.863834 40.297798-53.726645 85.074607-53.726645 53.731762 0 89.554642 26.863834 89.554642 64.922638 0 29.105898-17.913998 40.298821-49.256844 55.968709-26.863834 13.434987-67.160609 33.580816-67.160609 80.595596l0 42.539862c0 11.1919 8.953929 22.388916 22.3838 22.388916 13.433964 0 22.388916-8.954953 22.388916-22.388916l0-42.539862C527.288195 532.041452 540.718065 523.087523 569.823963 509.653559L569.823963 509.653559zM569.823963 509.653559" p-id="4106" fill="#ffffff"></path><path d="M478.031351 688.75875c0 7.621585 3.13848 15.193027 8.528234 20.581758 5.383614 5.38873 12.95915 8.523117 20.577664 8.523117 7.618515 0 15.193027-3.13541 20.577664-8.523117 5.389754-5.389754 8.528234-12.960173 8.528234-20.581758 0-7.618515-3.13848-15.189957-8.528234-20.578688-5.384637-5.387707-12.95915-8.522094-20.577664-8.522094-7.618515 0-15.19405 3.134387-20.577664 8.522094C481.169831 673.568792 478.031351 681.140235 478.031351 688.75875L478.031351 688.75875zM478.031351 688.75875" p-id="4107" fill="#ffffff"></path><path d="M511.617283 959.653483c-246.270916 0-447.762977-201.49206-447.762977-447.75786 0-246.270916 201.49206-447.762977 447.762977-447.762977 246.264776 0 447.75786 201.49206 447.75786 447.762977 0 89.549525-26.863834 176.862103-76.120678 250.744811-6.711865 8.953929-17.907858 11.1919-26.863834 4.473895-8.953929-6.711865-11.1919-17.908882-4.479011-26.863834 44.775786-67.165726 69.402673-147.761322 69.402673-228.355895 0-226.118947-183.580109-409.703149-409.698033-409.703149-226.118947 0-409.703149 183.584202-409.703149 409.703149 0 226.117924 183.584202 409.698033 409.703149 409.698033 94.028537 0 183.579085-31.342846 255.219729-89.549525 8.960069-6.718005 20.151969-4.480035 26.867928 2.237971 6.718005 8.953929 4.474918 20.149922-2.236947 26.867928C713.109344 923.835719 612.362802 959.653483 511.617283 959.653483L511.617283 959.653483zM511.617283 959.653483" p-id="4108" fill="#ffffff"></path></svg>