<?xml version="1.0" standalone="no"?><!DOCTYPE svg PUBLIC "-//W3C//DTD SVG 1.1//EN" "http://www.w3.org/Graphics/SVG/1.1/DTD/svg11.dtd"><svg t="1482309377529" class="icon" style="" viewBox="0 0 1024 1024" version="1.1" xmlns="http://www.w3.org/2000/svg" p-id="2790" xmlns:xlink="http://www.w3.org/1999/xlink" width="200" height="200"><defs><style type="text/css"></style></defs><path d="M511.974416 958.73654c-246.305244 0-446.700723-200.395479-446.700722-446.725283 0-246.328781 200.395479-446.74882 446.700722-446.74882 246.330828 0 446.750867 200.420039 446.750867 446.74882 0 246.329804-200.420039 446.725283-446.750867 446.725283z m0-859.762733c-227.750789 0-413.013913 185.285638-413.013913 413.03745 0 227.727252 185.263124 413.014937 413.013913 413.014936 227.752836 0 413.039497-185.287685 413.039497-413.014936 0-227.752836-185.286661-413.03745-413.039497-413.03745z" fill="#ffffff" p-id="2791"></path><path d="M405.337725 515.698406l219.191446-1.019262-105.399455 275.918076-113.791991-274.898814z m25.126443-100.016606l166.976788 1.55243 29.539151 67.179182L410.263134 482.859958l20.201034-67.178158z m-47.776365 65.141681l-132.004645-57.428652 70.936941-54.882544 84.712328 45.642669-23.644624 66.668527z m-132.004645-24.10718l125.117464 57.962843 134.453534 273.854991-259.570998-331.817834z m405.374566 57.454236l117.209997-63.104181-246.76473 335.916373 129.554733-272.812192z m-2.474473-33.856687l-32.982741-70.767064 75.352719-43.605169 65.018879 56.944605-107.388857 57.427628z m-225.593557-98.464175l-28.544449-7.687445-53.694428-31.284995 63.056083-23.598573h205.876569l62.546452 27.16292-60.098586 30.266756-20.201033 5.140313H427.989694z" fill="#ffffff" p-id="2792"></path></svg>