<?xml version="1.0" standalone="no"?><!DOCTYPE svg PUBLIC "-//W3C//DTD SVG 1.1//EN" "http://www.w3.org/Graphics/SVG/1.1/DTD/svg11.dtd"><svg t="1481960610612" class="icon" style="" viewBox="0 0 1024 1024" version="1.1" xmlns="http://www.w3.org/2000/svg" p-id="789" xmlns:xlink="http://www.w3.org/1999/xlink" width="200" height="200"><defs><style type="text/css"></style></defs><path d="M962.898004 525.942208 577.830077 106.902905l-0.105965-0.110781c-17.136206-17.13741-39.839181-26.576713-63.925719-26.576713-26.770581 0-51.402598 11.52368-69.363644 32.448131L59.542627 525.860326c-11.068513 11.127516-11.052859 31.335499 0.046962 42.437728 5.554727 5.555931 13.086662 8.614463 21.208629 8.614463 8.053331 0 15.834524-3.166905 21.353126-8.68912l0.054187-0.054187 379.310904-413.277463c7.073155-7.04546 16.599157-10.924015 26.831992-10.924015s19.735958 3.853268 26.766968 10.850562l380.269404 413.825349 0.105965 0.109577c5.094743 5.095947 13.108337 8.019614 21.982895 8.020819 9.074447 0 17.66001-3.168109 22.965478-8.474782 5.476457-5.475253 9.076855-12.895203 9.881225-20.357297C971.230696 539.480425 968.59482 531.670332 962.898004 525.942208z" p-id="790" fill="#ffffff"></path><path d="M845.261339 558.020666c-14.733934 0-28.665907 13.934381-28.665907 28.673132l0 277.459392c0 13.747738-8.543418 22.288748-22.294769 22.288748l-118.909448 0c-13.751351 0-22.294769-8.539806-22.294769-22.288748L653.096446 637.656882c0-20.477712-8.640954-40.863909-23.706028-55.928984-15.06387-15.066279-35.447659-23.707233-55.924167-23.707233L443.229398 558.020666c-20.477712 0-40.862705 8.640954-55.925371 23.707233-15.065074 15.066279-23.704824 35.451271-23.704824 55.928984l0 226.496308c0 13.747738-8.542214 22.288748-22.292361 22.288748l-113.248756 0c-13.750147 0-22.291156-8.539806-22.291156-22.288748l0-277.459392c0-14.738751-13.934381-28.673132-28.673132-28.673132-14.733934 0-28.665907 13.934381-28.665907 28.673132l0 277.459392c0 20.477712 8.63975 40.862705 23.704824 55.925371 15.065074 15.065074 35.447659 23.704824 55.924167 23.704824l118.910652 0c20.477712 0 40.862705-8.63975 55.926575-23.704824 15.065074-15.06387 23.704824-35.447659 23.704824-55.925371L426.598933 637.656882c0-13.751351 8.542214-22.294769 22.292361-22.294769l124.574956 0c13.747738 0 22.288748 8.542214 22.288748 22.294769l0 226.496308c0 20.477712 8.640954 40.862705 23.707233 55.926575 15.066279 15.06387 35.450067 23.704824 55.927779 23.704824l118.909448 0c20.477712 0 40.861501-8.63975 55.925371-23.704824s23.706028-35.448863 23.706028-55.925371l0-277.459392C873.933266 571.955047 859.998885 558.020666 845.261339 558.020666z" p-id="791" fill="#ffffff"></path></svg>