<?xml version="1.0" standalone="no"?><!DOCTYPE svg PUBLIC "-//W3C//DTD SVG 1.1//EN" "http://www.w3.org/Graphics/SVG/1.1/DTD/svg11.dtd"><svg t="1482116466750" class="icon" style="" viewBox="0 0 1024 1024" version="1.1" xmlns="http://www.w3.org/2000/svg" p-id="6791" xmlns:xlink="http://www.w3.org/1999/xlink" width="100" height="100"><defs><style type="text/css"></style></defs><path d="M828.415486 106.538455l-33.82027 0c-16.954137 0-30.699186 13.745049-30.699186 30.699186s13.745049 30.699186 30.699186 30.699186l33.82027 0c28.224832 0 51.186799 22.961968 51.186799 51.186799l0 99.178837L144.396691 318.302463l0-99.178837c0-28.224832 22.961968-51.186799 51.186799-51.186799l61.778019 0c16.954137 0 30.699186-13.745049 30.699186-30.699186s-13.745049-30.699186-30.699186-30.699186l-61.778019 0c-62.079894 0-112.585171 50.505277-112.585171 112.585171l0 658.464793c0 62.079894 50.505277 112.585171 112.585171 112.585171l632.830973 0c62.079894 0 112.585171-50.505277 112.585171-112.585171L940.999634 219.124649C941.001681 157.044756 890.49538 106.538455 828.415486 106.538455zM828.415486 928.776242 195.584514 928.776242c-28.224832 0-51.186799-22.961968-51.186799-51.186799L144.397714 379.701858l735.205595 0 0 497.887584C879.603309 905.814274 856.640318 928.776242 828.415486 928.776242z" p-id="6792" fill="#ffffff"></path><path d="M423.13609 167.936827l213.872019 0c16.954137 0 30.699186-13.745049 30.699186-30.699186s-13.745049-30.699186-30.699186-30.699186L423.13609 106.538455c-16.954137 0-30.699186 13.745049-30.699186 30.699186S406.180929 167.936827 423.13609 167.936827z" p-id="6793" fill="#ffffff"></path><path d="M340.931856 205.226105c16.954137 0 30.699186-13.745049 30.699186-30.699186L371.631042 64.524572c0-16.954137-13.745049-30.699186-30.699186-30.699186s-30.699186 13.745049-30.699186 30.699186l0 110.002346C310.23267 191.481056 323.976696 205.226105 340.931856 205.226105z" p-id="6794" fill="#ffffff"></path><path d="M716.892507 205.226105c16.954137 0 30.699186-13.745049 30.699186-30.699186L747.591693 64.524572c0-16.954137-13.745049-30.699186-30.699186-30.699186s-30.699186 13.745049-30.699186 30.699186l0 110.002346C686.193321 191.481056 699.937346 205.226105 716.892507 205.226105z" p-id="6795" fill="#ffffff"></path><path d="M795.619546 517.65786l-564.865022 0c-16.954137 0-30.699186 13.745049-30.699186 30.699186 0 16.954137 13.745049 30.699186 30.699186 30.699186l564.865022 0c16.954137 0 30.699186-13.745049 30.699186-30.699186C826.318732 531.402909 812.574706 517.65786 795.619546 517.65786z" p-id="6796" fill="#ffffff"></path><path d="M795.619546 722.017224l-564.865022 0c-16.954137 0-30.699186 13.745049-30.699186 30.699186s13.745049 30.699186 30.699186 30.699186l564.865022 0c16.954137 0 30.699186-13.745049 30.699186-30.699186S812.574706 722.017224 795.619546 722.017224z" p-id="6797" fill="#ffffff"></path></svg>